<?xml version="1.0" encoding="UTF-8"?>
<svg version="1.1" xmlns="http://www.w3.org/2000/svg" width="454" height="454">
<path d="M0 0 C149.82 0 299.64 0 454 0 C454 149.82 454 299.64 454 454 C304.18 454 154.36 454 0 454 C0 304.18 0 154.36 0 0 Z " fill="#FEFDFE" transform="translate(0,0)"/>
<path d="M0 0 C149.82 0 299.64 0 454 0 C454 149.82 454 299.64 454 454 C304.18 454 154.36 454 0 454 C0 304.18 0 154.36 0 0 Z M15 15 C15 154.92 15 294.84 15 439 C154.92 439 294.84 439 439 439 C439 299.08 439 159.16 439 15 C299.08 15 159.16 15 15 15 Z " fill="#FE34CC" transform="translate(0,0)"/>
<path d="M0 0 C2.49609375 -0.3984375 2.49609375 -0.3984375 5.4375 -0.375 C6.40558594 -0.38273437 7.37367188 -0.39046875 8.37109375 -0.3984375 C11.35889998 0.05439495 12.20350166 0.63162598 14 3 C15.39560045 5.79120091 15.21808288 8.20205692 15.31640625 11.3203125 C15.35830078 12.57714844 15.40019531 13.83398438 15.44335938 15.12890625 C15.48267578 16.44761719 15.52199219 17.76632813 15.5625 19.125 C15.60569512 20.46485751 15.64930973 21.80470156 15.69335938 23.14453125 C15.79970981 26.42957815 15.90173808 29.71470281 16 33 C16.56414517 32.99723462 17.12829035 32.99446924 17.70953083 32.99162006 C31.43006157 32.92539601 45.15056434 32.87592834 58.87122059 32.84456348 C65.50641128 32.82888715 72.14148688 32.80761282 78.77661133 32.77368164 C85.17620161 32.74115863 91.57568099 32.72316182 97.97534752 32.71536827 C100.42066889 32.70981208 102.86598398 32.69896266 105.31125832 32.68280983 C108.72822968 32.66112971 112.14473885 32.65802917 115.56176758 32.65942383 C116.57956299 32.648638 117.5973584 32.63785217 118.64599609 32.6267395 C119.57567703 32.63086349 120.50535797 32.63498749 121.46321106 32.63923645 C122.27162351 32.63647107 123.08003595 32.63370569 123.91294575 32.63085651 C126.52102083 33.0921545 127.36913312 33.95661681 129 36 C130.56935594 39.13871188 130.35201103 41.53855822 130 45 C127.98112779 47.91214027 126.38041386 49.7177432 122.81485558 50.44680214 C120.03694809 50.61733715 117.30109778 50.61805973 114.51831055 50.56762695 C112.93713692 50.56872215 112.93713692 50.56872215 111.32402039 50.56983948 C107.84439403 50.56635972 104.36611089 50.5274778 100.88671875 50.48828125 C98.47248567 50.47895457 96.05824312 50.47183777 93.64399719 50.46684265 C87.29305851 50.44776179 80.94269255 50.39865037 74.59197998 50.34332275 C68.11022692 50.29215449 61.62838123 50.2693337 55.14648438 50.24414062 C42.4307381 50.1905337 29.7154167 50.10520675 17 50 C17 56.27 17 62.54 17 69 C18.58554687 68.67128906 20.17109375 68.34257813 21.8046875 68.00390625 C30.55769529 66.54421424 39.28291939 66.82021059 48.125 66.9375 C50.66298606 66.9651705 53.20091606 66.98981134 55.73898315 67.00868225 C57.30603256 67.02089845 58.87305163 67.03846188 60.43997192 67.06199646 C64.34729001 67.1821847 64.34729001 67.1821847 68 66 C69.80843663 65.85283458 71.62331566 65.7789113 73.4375 65.75 C74.40558594 65.72421875 75.37367188 65.6984375 76.37109375 65.671875 C79 66 79 66 80.84765625 67.328125 C82 69 82 69 82 72 C82.66515625 72.09023437 83.3303125 72.18046875 84.015625 72.2734375 C87.88962691 73.21658456 91.20151624 74.83428942 94.75 76.625 C95.4608374 76.98327881 96.1716748 77.34155762 96.90405273 77.71069336 C102.45807656 80.58184664 107.34503662 83.80274222 112 88 C112.57492187 88.48339844 113.14984375 88.96679688 113.7421875 89.46484375 C122.69397548 97.57095591 129.96551548 109.35681484 133 121 C133.26055176 121.95869995 133.26055176 121.95869995 133.52636719 122.93676758 C135.04163952 128.97841315 135.30171573 134.727303 135.25 140.9375 C135.25773438 141.86240234 135.26546875 142.78730469 135.2734375 143.74023438 C135.22339463 161.59302903 128.68993494 178.08921266 116.4375 191.125 C102.46605782 204.40207834 84.51527085 211.54643819 66 216 C64.75992188 216.2990625 63.51984375 216.598125 62.2421875 216.90625 C54.76253681 218.57224456 47.41248039 219.31744203 39.75 219.4375 C38.93958252 219.45973633 38.12916504 219.48197266 37.29418945 219.50488281 C33.59554993 219.49080914 31.59844661 219.40701803 28.484375 217.2890625 C26.74904036 214.61299382 26.46174009 213.10829025 26.5 209.9375 C26.48453125 208.65166016 26.48453125 208.65166016 26.46875 207.33984375 C27 205 27 205 28.71484375 203.21875 C31.37254656 201.8013085 33.06068431 201.63592571 36.0625 201.5625 C61.79965789 199.87788603 88.21088067 190.08239358 106 171 C108.43382541 167.81843304 110.29705555 164.62016668 112 161 C112.40992188 160.17242187 112.81984375 159.34484375 113.2421875 158.4921875 C118.35923217 146.6700498 117.02294152 134.30270976 112.60546875 122.53515625 C105.77196737 107.48815199 95.03838734 96.66335049 80 90 C77.75866218 89.32000122 77.75866218 89.32000122 76 89 C75.89147705 89.70455322 75.7829541 90.40910645 75.67114258 91.13500977 C74.92081417 94.33803044 73.73629718 96.8993927 72.26171875 99.83984375 C71.41202515 101.54068115 71.41202515 101.54068115 70.54516602 103.27587891 C69.9264767 104.49668937 69.3072412 105.71722318 68.6875 106.9375 C68.37287811 107.56114441 68.05825623 108.18478882 67.73410034 108.82733154 C61.74697677 120.6947706 55.52064743 132.41621559 49 144 C48.38946777 145.08684082 47.77893555 146.17368164 47.14990234 147.29345703 C45.19345967 150.76412267 43.22437225 154.22700678 41.25 157.6875 C40.64808838 158.75049316 40.04617676 159.81348633 39.42602539 160.90869141 C35.85956765 167.10719789 32.03425594 172.81741808 27.56225586 178.40405273 C25.21833361 182.29886838 25.34982812 185.93786749 25.234375 190.3828125 C25 193 25 193 23.0625 196.25 C19.76140058 198.13634252 18.93446778 198.11418655 15.3125 197.875 C9.64445731 197.57404198 7.07474478 199.66045042 2.7109375 203.046875 C-9.41937789 211.78629531 -22.86040507 213.39085435 -37.41015625 211.57421875 C-49.51322988 209.22284688 -58.81216445 202.99762581 -66 193 C-71.44548 184.05385428 -73.36568544 175.5448079 -73.25 165.1875 C-73.24250732 164.30167236 -73.23501465 163.41584473 -73.22729492 162.50317383 C-73.12277013 156.14234393 -72.70238959 150.15548236 -71 144 C-70.53980469 142.28490234 -70.53980469 142.28490234 -70.0703125 140.53515625 C-65.62911958 125.69544611 -57.90594843 113.94206084 -47 103 C-46.16984375 102.16339844 -45.3396875 101.32679687 -44.484375 100.46484375 C-32.0076559 88.08621207 -17.76624016 78.58874672 -1 73 C-1 65.41 -1 57.82 -1 50 C-6.74867357 50.05107662 -12.4946512 50.11404402 -18.24243164 50.20751953 C-20.19676996 50.23570944 -22.15122186 50.25693383 -24.10571289 50.27099609 C-26.91872223 50.29245307 -29.73036871 50.33911695 -32.54296875 50.390625 C-33.84949654 50.39246796 -33.84949654 50.39246796 -35.18241882 50.39434814 C-40.43626981 50.5206152 -43.12318804 51.14119824 -47 55 C-51.43242569 57.46245872 -56.05051661 57.80016648 -61 57 C-66.62273731 54.6934898 -70.08560688 51.36248334 -73 46 C-74.59072853 41.22781442 -75.02510621 36.51857991 -73.09375 31.7734375 C-70.48425423 27.30718512 -67.75600994 24.24340092 -63 22 C-57.28277947 20.61633654 -52.19287788 20.52978417 -46.7578125 22.90625 C-43.19867391 25.12082513 -40.86948486 28.26103028 -39 32 C-20.685 32.495 -20.685 32.495 -2 33 C-2.07907548 23.26197335 -2.07907548 23.26197335 -2.18017578 13.52416992 C-2.1851709 12.31349854 -2.19016602 11.10282715 -2.1953125 9.85546875 C-2.20578613 8.61434326 -2.21625977 7.37321777 -2.22705078 6.09448242 C-2 3 -2 3 0 0 Z " fill="#FE35CC" transform="translate(300,18)"/>
<path d="M0 0 C2.625 2 2.625 2 4 5 C4.33828144 10.70417459 3.6130506 15.42095952 1.8684082 20.87109375 C1.53140254 21.96761513 1.53140254 21.96761513 1.18758869 23.08628845 C0.47238875 25.39554009 -0.26092073 27.69828868 -1 30 C-1.23227421 30.72777649 -1.46454842 31.45555298 -1.70386124 32.2053833 C-3.40008335 37.50242307 -5.14415291 42.78315969 -6.89453125 48.0625 C-7.45141834 49.74942198 -8.00802696 51.43643592 -8.56437683 53.12353516 C-10.01712665 57.52695763 -11.472922 61.92936634 -12.92962646 66.33148193 C-22.36332699 94.79576916 -22.36332699 94.79576916 -31.63671875 123.3125 C-31.94253372 124.25915527 -32.24834869 125.20581055 -32.56343079 126.18115234 C-34.55380283 132.4087398 -36.32554617 138.68039592 -38 145 C-37.47857422 144.33532715 -36.95714844 143.6706543 -36.41992188 142.98583984 C-32.21717406 137.64401921 -27.86000536 132.50459343 -23.265625 127.49609375 C-21.78838848 125.86858662 -20.33864038 124.21556782 -18.921875 122.53515625 C-9.25164403 111.19949661 2.73233594 101.75588802 17 97 C33.43282465 95.81091067 33.43282465 95.81091067 40 101 C45.4426004 106.29550309 47.14261111 112.71845837 47.38476562 120.08959961 C47.40580151 122.44376457 47.41218147 124.79809228 47.40625 127.15234375 C47.41708618 128.40704971 47.42792236 129.66175568 47.43908691 130.95448303 C47.47323783 134.94888234 47.48953151 138.94298886 47.5 142.9375 C47.51379665 148.19687641 47.54836366 153.45561758 47.59375 158.71484375 C47.59072876 159.91197495 47.58770752 161.10910614 47.58459473 162.34251404 C47.64530743 169.1559123 48.4145713 174.69589314 51 181 C51.309375 181.969375 51.61875 182.93875 51.9375 183.9375 C53.27710324 186.53790628 54.28801448 186.99269109 57 188 C57.721875 188.391875 58.44375 188.78375 59.1875 189.1875 C64.63620948 190.76157163 69.98532365 189.68298967 75.125 187.4375 C91.34676669 178.2045577 96.16165144 153.09801424 101.0703125 136.34765625 C102.78762518 129.96575104 103.3833501 126.82203421 100.4375 120.8125 C98.59782748 116.52908339 98.16289403 112.59618561 99 108 C101.27335567 102.50119954 104.56720007 98.56264148 110 96 C115.71638325 94.61653918 120.8158669 94.52256866 126.24609375 96.9140625 C130.43484847 99.50754538 133.07691105 103.52122705 135 108 C136.03510314 114.40319617 134.71628355 119.71833657 131 125 C128.71809758 127.11890939 126.76653461 128.61673269 124 130 C123.09310228 132.24459634 123.09310228 132.24459634 122.3359375 135.01171875 C122.02277588 136.06891113 121.70961426 137.12610352 121.38696289 138.21533203 C121.05301514 139.36114746 120.71906738 140.50696289 120.375 141.6875 C104.89530101 193.11673981 104.89530101 193.11673981 90 202.22265625 C88.02072385 203.26852376 86.08235423 204.17873506 84 205 C83.18917969 205.35449219 82.37835938 205.70898438 81.54296875 206.07421875 C70.6366616 208.92404763 55.07607654 209.33911861 44.75 204.4375 C42.140625 202.7421875 42.140625 202.7421875 40 201 C39.37609375 200.52820313 38.7521875 200.05640625 38.109375 199.5703125 C31.02162252 192.92984538 29.99145364 181.47122477 29.65039062 172.32739258 C29.48349496 164.5106269 29.48055014 156.69313885 29.5 148.875 C29.51314937 143.53873023 29.49844274 138.20344 29.46875 132.8671875 C29.48006958 131.64949677 29.49138916 130.43180603 29.50305176 129.17721558 C29.4962439 128.04478424 29.48943604 126.91235291 29.48242188 125.74560547 C29.48560425 124.75382294 29.48878662 123.76204041 29.49206543 122.74020386 C28.85826394 119.21070315 27.5150398 117.51407921 25 115 C16.85910994 114.3215925 9.16938882 120.48752354 3.09765625 125.30078125 C-3.35916736 130.97880145 -8.71763273 137.24206237 -14 144 C-14.92073169 145.13480097 -15.84403333 146.26752031 -16.76953125 147.3984375 C-28.58962382 161.88644334 -39.23455001 177.10664958 -49.44433594 192.76538086 C-59.09614951 207.46201589 -59.09614951 207.46201589 -63.66796875 208.75390625 C-64.49941406 208.69074219 -65.33085938 208.62757813 -66.1875 208.5625 C-67.02667969 208.52253906 -67.86585937 208.48257813 -68.73046875 208.44140625 C-71 208 -71 208 -74 206 C-76.53184392 194.49662221 -71.56107707 182.92654231 -68.02636719 172.18310547 C-66.28393453 166.77924319 -64.71543987 161.32510793 -63.125 155.875 C-54.23446265 125.75873054 -44.57276883 95.88218719 -34.96136475 65.99017334 C-34.05137365 63.15978964 -33.14208845 60.32918003 -32.23291016 57.49853516 C-29.06223098 47.63229989 -25.86852568 37.77400215 -22.6328125 27.92889404 C-22.01297919 26.03956225 -21.39707213 24.14894381 -20.78125 22.25830078 C-19.70220582 18.95874044 -18.60512391 15.66590112 -17.5 12.375 C-17.19771484 11.44405518 -16.89542969 10.51311035 -16.58398438 9.55395508 C-16.29845703 8.71888428 -16.01292969 7.88381348 -15.71875 7.0234375 C-15.36200195 5.95488525 -15.36200195 5.95488525 -14.99804688 4.86474609 C-11.83580049 -1.0435802 -5.93688004 -1.02564041 0 0 Z " fill="#FE35CC" transform="translate(91,227)"/>
<path d="M0 0 C4.6432207 4.21129319 7.92757695 8.50015696 8.25 14.9375 C7.87105201 21.0322468 5.52454816 25.64637805 1.1875 29.875 C-1.07212489 31.28726556 -2.69809915 32.05018136 -5.3125 32.4375 C-5.250625 33.38625 -5.18875 34.335 -5.125 35.3125 C-5.10307329 38.68233379 -5.81701261 41.48599949 -6.82421875 44.6953125 C-7.10096436 45.58621582 -7.37770996 46.47711914 -7.6628418 47.39501953 C-7.98442261 48.40604736 -7.98442261 48.40604736 -8.3125 49.4375 C-7.58968338 49.42639694 -6.86686676 49.41529388 -6.12214661 49.40385437 C0.74609768 49.3029662 7.61422885 49.22719075 14.48302746 49.17843914 C18.01301809 49.15253082 21.54238798 49.11748657 25.07202148 49.06030273 C29.14572525 48.99473014 33.21879445 48.97116515 37.29296875 48.94921875 C38.5382988 48.92341232 39.78362885 48.8976059 41.06669617 48.87101746 C53.51233656 48.86710152 63.60133578 52.23772841 72.5390625 61.07421875 C85.13570234 74.93052258 86.51211734 91.16984895 86.1875 109.0625 C86.16995927 110.93668278 86.15279075 112.81086907 86.13598633 114.68505859 C85.98079924 126.68292375 85.3675285 138.47452865 83.09326172 150.28076172 C82.69606388 152.39198056 82.37187256 154.50268018 82.06640625 156.62890625 C79.43768821 173.96672492 73.10536743 194.3657588 58.6875 205.4375 C45.4652398 212.71879945 30.92460524 213.7210979 16.32983398 209.84716797 C-15.41998009 200.26292978 -15.41998009 200.26292978 -25.3125 191.4375 C-25.7734375 188.58984375 -25.7734375 188.58984375 -25.6875 185.375 C-25.67460938 184.31152344 -25.66171875 183.24804688 -25.6484375 182.15234375 C-25.3125 179.4375 -25.3125 179.4375 -23.3125 177.4375 C-14.91087319 175.78788499 -7.76151565 179.29169506 -0.25 182.625 C19.68339602 192.14548119 19.68339602 192.14548119 41.04296875 192.7734375 C50.64959821 187.73456576 54.73179449 178.92687473 57.96972656 168.99560547 C58.2065918 168.23393066 58.44345703 167.47225586 58.6875 166.6875 C58.94241211 165.87039551 59.19732422 165.05329102 59.45996094 164.21142578 C66.74529294 140.10000859 74.46586478 105.27575982 62.94140625 81.50390625 C59.10999534 75.18983656 53.59345668 70.95614302 46.6875 68.4375 C43.13616351 67.6076716 39.80580424 67.29189843 36.1628418 67.23217773 C35.08209885 67.21223251 34.0013559 67.19228729 32.88786316 67.17173767 C31.7324855 67.15502518 30.57710785 67.13831268 29.38671875 67.12109375 C27.59945122 67.0899221 27.59945122 67.0899221 25.77607727 67.05812073 C21.97577597 66.99281821 18.17540648 66.93382982 14.375 66.875 C11.79621695 66.83179644 9.21744076 66.78818156 6.63867188 66.74414062 C0.32168634 66.63715655 -5.9953668 66.53535445 -12.3125 66.4375 C-12.44264496 67.10027954 -12.57278992 67.76305908 -12.70687866 68.44592285 C-21.17390969 111.23586401 -36.37232395 153.37010642 -55.625 192.4375 C-56.00922119 193.22020264 -56.39344238 194.00290527 -56.78930664 194.80932617 C-64.1187157 209.34060785 -64.1187157 209.34060785 -68.3125 211.4375 C-70.58984375 211.67578125 -70.58984375 211.67578125 -73.25 211.75 C-74.56291016 211.80607422 -74.56291016 211.80607422 -75.90234375 211.86328125 C-78.3125 211.4375 -78.3125 211.4375 -80.0859375 209.72265625 C-82.44148138 205.33414297 -82.22176065 201.25897425 -81.3125 196.4375 C-80.01353037 193.6447153 -78.53616926 191.05906386 -76.92358398 188.43774414 C-61.7153735 163.71265987 -52.39440108 135.34102893 -43.4375 107.875 C-43.039935 106.66011398 -43.039935 106.66011398 -42.63433838 105.42068481 C-38.43681157 92.53810596 -34.78396604 79.53309939 -31.3125 66.4375 C-32.20452873 66.44749275 -32.20452873 66.44749275 -33.11457825 66.45768738 C-39.29483645 66.5239728 -45.47499396 66.56927225 -51.65551758 66.60229492 C-53.96317648 66.61739676 -56.27080661 66.63787969 -58.57836914 66.66381836 C-61.89216199 66.70013975 -65.20557592 66.71721236 -68.51953125 66.73046875 C-70.07121758 66.75369453 -70.07121758 66.75369453 -71.6542511 66.77738953 C-72.6150206 66.77761612 -73.5757901 66.77784271 -74.56567383 66.77807617 C-75.41172684 66.78473801 -76.25777985 66.79139984 -77.12947083 66.79826355 C-79.81961486 66.35369509 -80.69476846 65.59867582 -82.3125 63.4375 C-82.7109375 60.84375 -82.7109375 60.84375 -82.6875 57.9375 C-82.69523437 56.9784375 -82.70296875 56.019375 -82.7109375 55.03125 C-82.24082944 51.97093871 -81.74874954 51.27663664 -79.3125 49.4375 C-76.93965149 49.07673645 -76.93965149 49.07673645 -74.10668945 49.09692383 C-72.51537956 49.09726372 -72.51537956 49.09726372 -70.891922 49.09761047 C-69.17618233 49.12083626 -69.17618233 49.12083626 -67.42578125 49.14453125 C-65.66756294 49.15089851 -65.66756294 49.15089851 -63.87382507 49.15739441 C-60.12398466 49.17420928 -56.37467843 49.21186768 -52.625 49.25 C-50.08529421 49.26504316 -47.54558001 49.2787322 -45.00585938 49.29101562 C-38.77455681 49.32412204 -32.54356656 49.37434972 -26.3125 49.4375 C-26.17827637 48.62780762 -26.04405273 47.81811523 -25.90576172 46.98388672 C-25.72803223 45.91412598 -25.55030273 44.84436523 -25.3671875 43.7421875 C-25.19171387 42.68499512 -25.01624023 41.62780273 -24.83544922 40.53857422 C-24.50922392 38.60406736 -24.17359503 36.67109426 -23.82373047 34.74072266 C-23.07408208 30.51293319 -23.02547016 28.95415372 -25.1875 25.0625 C-25.88875 24.19625 -26.59 23.33 -27.3125 22.4375 C-28.90322853 17.66531442 -29.33760621 12.95607991 -27.40625 8.2109375 C-24.51479149 3.26209505 -21.04280898 -0.35267006 -15.43359375 -2.171875 C-10.10326771 -3.15351884 -4.85395855 -2.28960309 0 0 Z " fill="#FE34CC" transform="translate(100.3125,20.5625)"/>
<path d="M0 0 C0.86367187 -0.03738281 1.72734375 -0.07476562 2.6171875 -0.11328125 C6.01457235 0.46353331 7.00739754 1.62273183 9.125 4.3125 C9.59255981 7.258255 9.59255981 7.258255 9.54736328 10.7355957 C9.54060577 12.04248856 9.53384827 13.34938141 9.52688599 14.69587708 C9.49976153 16.12667973 9.47256846 17.55748109 9.4453125 18.98828125 C9.43274293 20.47444587 9.42227235 21.96062957 9.41378784 23.44682312 C9.38715549 27.37562515 9.33839505 31.30380789 9.28308105 35.2322998 C9.18685226 42.19237554 9.11815494 49.15271127 9.0703125 56.11328125 C9.06505114 56.86469894 9.05978977 57.61611664 9.05436897 58.39030457 C8.98201041 71.12051429 9.5587908 83.67157707 11.125 96.3125 C11.21704712 97.06749786 11.30909424 97.82249573 11.40393066 98.60037231 C11.99317133 103.31109101 12.68794077 107.99925012 13.4375 112.6875 C13.54482452 113.36496277 13.65214905 114.04242554 13.76272583 114.74041748 C15.43676341 125.21637573 17.45273567 135.34492538 21.125 145.3125 C21.35832031 145.94800781 21.59164063 146.58351563 21.83203125 147.23828125 C25.74798623 157.91733926 25.74798623 157.91733926 33.125 166.3125 C36.05411143 167.71792699 36.05411143 167.71792699 39.125 167.3125 C51.91633975 160.03232259 57.40487966 142.92162743 63.33984375 130.09204102 C63.63380035 129.46397049 63.92775696 128.83589996 64.23062134 128.188797 C65.04103038 126.45542611 65.84184646 124.71757963 66.64208984 122.97949219 C68.125 120.3125 68.125 120.3125 71.125 118.3125 C75.62010486 117.66712601 79.72395562 117.54526141 83.75 119.75 C85.79422773 123.55969714 85.68591053 127.12769834 85.125 131.3125 C83.83792754 135.15684835 82.08614041 138.70327178 80.25 142.3125 C79.7540332 143.31418213 79.25806641 144.31586426 78.74707031 145.34790039 C62.48454366 177.76698363 62.48454366 177.76698363 48.125 184.3125 C47.32707031 184.67859375 46.52914062 185.0446875 45.70703125 185.421875 C38.43502233 187.93022301 30.30516832 186.87896829 23.4296875 183.671875 C7.56094375 174.31200581 1.93282238 151.60054082 -2.515625 134.90869141 C-9.39661472 107.21619479 -9.34805658 78.41875112 -9.1975708 50.08288574 C-9.18396699 46.59387907 -9.18934982 43.10499846 -9.19469929 39.61597729 C-9.19804721 36.21603877 -9.19139985 32.81617781 -9.18157005 29.41625404 C-9.17776038 27.81323972 -9.17655195 26.21021676 -9.1781559 24.60719872 C-9.18083653 8.65138075 -9.18083653 8.65138075 -6.875 1.3125 C-4.44538821 0.0976941 -2.71115884 0.07642733 0 0 Z " fill="#FE35CC" transform="translate(236.875,242.6875)"/>
<path d="M0 0 C0.07516846 1.17989502 0.15033691 2.35979004 0.2277832 3.57543945 C0.58467018 9.15476652 0.94770725 14.73368477 1.3125 20.3125 C1.41129456 21.82805984 1.41129456 21.82805984 1.51208496 23.37423706 C2.21755887 34.13783563 2.95265319 44.89547134 3.90234375 55.640625 C3.97403275 56.45190353 4.04572174 57.26318207 4.11958313 58.0990448 C4.45846573 61.89515578 4.80930794 65.68984068 5.1730957 69.48364258 C5.29770289 70.83414584 5.4222968 72.18465032 5.546875 73.53515625 C5.65870117 74.694104 5.77052734 75.85305176 5.88574219 77.04711914 C6.09798596 82.53235088 4.49575915 85.1572398 0.9296875 89.1328125 C-7.30982463 97.10545784 -17.27948175 102.34571879 -28.6875 103.3125 C-35.87074588 103.16369453 -42.02700832 100.27784558 -47.3125 95.5 C-54.08924457 88.06345069 -56.85938196 79.39542754 -56.41796875 69.421875 C-53.52561045 45.74238087 -39.53961634 26.56541677 -21.3671875 11.87109375 C-18.96128354 10.14209203 -16.52667665 8.54686616 -14 7 C-12.93910156 6.34902344 -11.87820313 5.69804688 -10.78515625 5.02734375 C-2.37959742 0 -2.37959742 0 0 0 Z " fill="#FEFDFE" transform="translate(301,110)"/>
<path d="M0 0 C3.96084937 3.59239827 7.22128964 7.30647361 8.03125 12.74609375 C8.07639082 16.09215681 7.82542591 18.95917567 6.89453125 22.1875 C6.59152139 26.94418311 8.64427651 29.78578218 11 33.8125 C19.69889193 49.48321816 26.56271946 66.26205797 31.6875 83.4375 C31.89181641 84.11377441 32.09613281 84.79004883 32.30664062 85.48681641 C35.63513111 96.59603048 38.20668619 107.79407289 40.28076172 119.20263672 C40.63316065 121.13892712 41.00433253 123.07178306 41.37890625 125.00390625 C42.66908377 132.50137139 42.94729979 139.9704536 43.0625 147.5625 C43.08860352 148.57159424 43.11470703 149.58068848 43.14160156 150.62036133 C43.15834665 157.69336474 43.15834665 157.69336474 41.01171875 161.0859375 C38.18705013 162.72851791 36.38367854 162.97296861 33.125 162.9375 C32.17496094 162.9478125 31.22492188 162.958125 30.24609375 162.96875 C27.6875 162.4375 27.6875 162.4375 26.11914062 160.87915039 C24.23228336 157.66113205 23.75265779 154.47345934 23.22265625 150.83984375 C23.10461639 150.09762573 22.98657654 149.35540771 22.86495972 148.59069824 C22.61383821 147.00643729 22.36763883 145.4213896 22.12594604 143.83566284 C21.49710769 139.71975527 20.8283705 135.61030472 20.1640625 131.5 C20.03549362 130.69880234 19.90692474 129.89760468 19.77445984 129.0721283 C18.38456539 120.45489465 16.71574079 111.92730555 14.6875 103.4375 C14.41969727 102.29885498 14.41969727 102.29885498 14.14648438 101.13720703 C8.90442068 79.15566675 0.91683163 57.03993894 -10.97949219 37.73193359 C-12.3125 35.4375 -12.3125 35.4375 -12.3125 33.4375 C-13.01375 33.355 -13.715 33.2725 -14.4375 33.1875 C-19.44828217 31.88033943 -22.52360959 29.48224675 -25.625 25.375 C-28.50035765 20.3697478 -29.07413678 16.0978461 -28.3125 10.4375 C-26.65021948 5.40766842 -25.08527714 1.34197813 -20.25 -1.125 C-19.280625 -1.269375 -18.31125 -1.41375 -17.3125 -1.5625 C-16.69246094 -1.74039063 -16.07242187 -1.91828125 -15.43359375 -2.1015625 C-10.15790806 -3.24802827 -4.81372116 -2.27062319 0 0 Z " fill="#FE35CC" transform="translate(387.3125,237.5625)"/>
<path d="M0 0 C11.65150918 0.51852266 20.57518476 11.8817535 28.54296875 19.48046875 C31.13056329 21.94547469 33.76905517 24.31827961 36.5 26.625 C40.41161612 30.00779248 43.6852158 33.79123932 47 37.75 C47.78503906 38.6471875 48.57007813 39.544375 49.37890625 40.46875 C65.35392963 59.00465499 65.35392963 59.00465499 65.6875 67.75 C65.31922508 71.32752777 64.35318711 73.9610375 62 76.75 C58.36217368 77.96260877 55.82264001 78.14544552 52 77.75 C48.35532826 74.57450108 45.76546043 71.12753655 43.1875 67.0625 C36.97136127 57.55204056 29.748242 49.04353563 22 40.75 C21.20207031 39.88632813 20.40414062 39.02265625 19.58203125 38.1328125 C12.26406027 30.49378077 4.12148372 24.24724113 -4.38696289 17.99584961 C-7.93186737 15.25789781 -7.93186737 15.25789781 -8.30078125 12.5078125 C-8.30464844 11.63898437 -8.30851563 10.77015625 -8.3125 9.875 C-8.32925781 9.01132812 -8.34601563 8.14765625 -8.36328125 7.2578125 C-7.60124385 1.99729627 -5.18505549 0.15072836 0 0 Z " fill="#FE36CC" transform="translate(155,34.25)"/>
<path d="M0 0 C1.40429047 0.01005265 2.80858793 0.01917445 4.21289062 0.02734375 C7.62127485 0.05076907 11.029295 0.08357254 14.4375 0.125 C13.79221609 4.47158331 12.24881608 7.98903487 10.36328125 11.9453125 C10.05320633 12.59807159 9.74313141 13.25083069 9.42366028 13.92337036 C8.43599036 15.99439327 7.43854404 18.06041127 6.4375 20.125 C5.96132233 21.1084137 5.96132233 21.1084137 5.4755249 22.11169434 C3.22054963 26.7554232 0.93074685 31.3812991 -1.375 36 C-1.72022705 36.69279053 -2.0654541 37.38558105 -2.42114258 38.09936523 C-7.71611188 48.70275216 -13.266045 59.07488913 -19.5625 69.125 C-22.05750788 66.62999212 -21.8774136 65.68133353 -22.06494141 62.22314453 C-22.1248526 61.20092804 -22.18476379 60.17871155 -22.24649048 59.1255188 C-22.32943863 57.45850418 -22.32943863 57.45850418 -22.4140625 55.7578125 C-22.47782074 54.6127121 -22.54157898 53.46761169 -22.60726929 52.28781128 C-22.74094845 49.85519774 -22.87009758 47.42233176 -22.99511719 44.98925781 C-23.1849514 41.29953599 -23.38804372 37.61074242 -23.59375 33.921875 C-23.72214438 31.55473023 -23.84977198 29.18754372 -23.9765625 26.8203125 C-24.03590973 25.72921173 -24.09525696 24.63811096 -24.15640259 23.51394653 C-24.51942403 16.37811655 -24.6300519 9.26958902 -24.5625 2.125 C-16.38495792 -0.17521671 -8.41975466 -0.10545835 0 0 Z " fill="#FEFCFE" transform="translate(342.5625,101.875)"/>
</svg>
